<mxfile host="app.diagrams.net" modified="2023-02-07T05:42:18.601Z" agent="5.0 (Windows NT 10.0; Win64; x64) AppleWebKit/537.36 (KHTML, like Gecko) Chrome/109.0.0.0 Safari/537.36" etag="dmfkhXkTw9tYtR0dUWZF" version="20.8.13" type="github">
  <diagram id="dLaz82Era-zrFtT4xEze" name="Page-1">
    <mxGraphModel dx="2025" dy="1120" grid="1" gridSize="10" guides="1" tooltips="1" connect="1" arrows="1" fold="1" page="1" pageScale="1" pageWidth="10000" pageHeight="10000" math="0" shadow="0">
      <root>
        <mxCell id="0" />
        <mxCell id="1" parent="0" />
        <mxCell id="Wr4rOZ4-yWCgEpKX6l3O-36" value="" style="rounded=0;whiteSpace=wrap;html=1;fillColor=#e1d5e7;strokeColor=#9673a6;" parent="1" vertex="1">
          <mxGeometry x="660" y="170" width="260" height="520" as="geometry" />
        </mxCell>
        <mxCell id="Wr4rOZ4-yWCgEpKX6l3O-55" style="edgeStyle=orthogonalEdgeStyle;rounded=0;orthogonalLoop=1;jettySize=auto;html=1;entryX=0;entryY=0.5;entryDx=0;entryDy=0;fontSize=20;exitX=1;exitY=0.5;exitDx=0;exitDy=0;" parent="1" source="Wr4rOZ4-yWCgEpKX6l3O-26" target="Wr4rOZ4-yWCgEpKX6l3O-54" edge="1">
          <mxGeometry relative="1" as="geometry" />
        </mxCell>
        <mxCell id="Wr4rOZ4-yWCgEpKX6l3O-60" value="" style="edgeStyle=orthogonalEdgeStyle;rounded=0;orthogonalLoop=1;jettySize=auto;html=1;fontSize=13;" parent="1" source="Wr4rOZ4-yWCgEpKX6l3O-18" target="Wr4rOZ4-yWCgEpKX6l3O-40" edge="1">
          <mxGeometry relative="1" as="geometry" />
        </mxCell>
        <mxCell id="Wr4rOZ4-yWCgEpKX6l3O-18" value="&lt;font style=&quot;font-size: 20px;&quot;&gt;Targets/ Scan Configuration&lt;/font&gt;" style="whiteSpace=wrap;html=1;aspect=fixed;fillColor=#E6FFCC;" parent="1" vertex="1">
          <mxGeometry x="210" y="620" width="140" height="140" as="geometry" />
        </mxCell>
        <mxCell id="gi1j-m5IwWOm1mO39dkb-5" style="edgeStyle=orthogonalEdgeStyle;rounded=0;orthogonalLoop=1;jettySize=auto;html=1;fontSize=20;" edge="1" parent="1" source="Wr4rOZ4-yWCgEpKX6l3O-23" target="gi1j-m5IwWOm1mO39dkb-3">
          <mxGeometry relative="1" as="geometry" />
        </mxCell>
        <mxCell id="Wr4rOZ4-yWCgEpKX6l3O-23" value="SSLyze" style="ellipse;whiteSpace=wrap;html=1;aspect=fixed;fillColor=#E6FFCC;" parent="1" vertex="1">
          <mxGeometry x="790" y="340" width="80" height="80" as="geometry" />
        </mxCell>
        <mxCell id="Wr4rOZ4-yWCgEpKX6l3O-24" value="OSWASP ZAP" style="ellipse;whiteSpace=wrap;html=1;aspect=fixed;fillColor=#E6FFCC;" parent="1" vertex="1">
          <mxGeometry x="790" y="240" width="80" height="80" as="geometry" />
        </mxCell>
        <mxCell id="Wr4rOZ4-yWCgEpKX6l3O-142" style="edgeStyle=orthogonalEdgeStyle;rounded=0;orthogonalLoop=1;jettySize=auto;html=1;entryX=0;entryY=0.5;entryDx=0;entryDy=0;fontSize=12;" parent="1" source="Wr4rOZ4-yWCgEpKX6l3O-25" target="Wr4rOZ4-yWCgEpKX6l3O-87" edge="1">
          <mxGeometry relative="1" as="geometry" />
        </mxCell>
        <mxCell id="Wr4rOZ4-yWCgEpKX6l3O-25" value="Nmap" style="ellipse;whiteSpace=wrap;html=1;aspect=fixed;fillColor=#E6FFCC;" parent="1" vertex="1">
          <mxGeometry x="790" y="450" width="80" height="80" as="geometry" />
        </mxCell>
        <mxCell id="Wr4rOZ4-yWCgEpKX6l3O-26" value="OpenVAS" style="ellipse;whiteSpace=wrap;html=1;aspect=fixed;fillColor=#E6FFCC;" parent="1" vertex="1">
          <mxGeometry x="790" y="550" width="80" height="80" as="geometry" />
        </mxCell>
        <mxCell id="Wr4rOZ4-yWCgEpKX6l3O-33" value="" style="group" parent="1" vertex="1" connectable="0">
          <mxGeometry x="410" y="750" width="190" height="190" as="geometry" />
        </mxCell>
        <object label="CVEs, CPEs, NVT database for&amp;nbsp;&lt;br&gt;different OS." id="Wr4rOZ4-yWCgEpKX6l3O-15">
          <mxCell style="shape=datastore;whiteSpace=wrap;html=1;fillColor=#e6b39e;" parent="Wr4rOZ4-yWCgEpKX6l3O-33" vertex="1">
            <mxGeometry width="190" height="190" as="geometry" />
          </mxCell>
        </object>
        <mxCell id="Wr4rOZ4-yWCgEpKX6l3O-17" value="Vulnerability Database" style="text;html=1;strokeColor=none;fillColor=none;align=center;verticalAlign=middle;whiteSpace=wrap;rounded=0;" parent="Wr4rOZ4-yWCgEpKX6l3O-33" vertex="1">
          <mxGeometry x="65" y="10" width="60" height="30" as="geometry" />
        </mxCell>
        <mxCell id="Wr4rOZ4-yWCgEpKX6l3O-38" value="VA Scanners" style="text;html=1;strokeColor=none;fillColor=none;align=center;verticalAlign=middle;whiteSpace=wrap;rounded=0;fontSize=20;" parent="1" vertex="1">
          <mxGeometry x="760" y="180" width="60" height="30" as="geometry" />
        </mxCell>
        <mxCell id="Wr4rOZ4-yWCgEpKX6l3O-52" style="edgeStyle=orthogonalEdgeStyle;rounded=0;orthogonalLoop=1;jettySize=auto;html=1;entryX=0;entryY=0.5;entryDx=0;entryDy=0;fontSize=20;" parent="1" source="Wr4rOZ4-yWCgEpKX6l3O-40" target="Wr4rOZ4-yWCgEpKX6l3O-70" edge="1">
          <mxGeometry relative="1" as="geometry">
            <mxPoint x="460" y="330" as="targetPoint" />
          </mxGeometry>
        </mxCell>
        <mxCell id="Wr4rOZ4-yWCgEpKX6l3O-85" style="edgeStyle=orthogonalEdgeStyle;rounded=0;orthogonalLoop=1;jettySize=auto;html=1;fontSize=20;" parent="1" source="Wr4rOZ4-yWCgEpKX6l3O-40" target="Wr4rOZ4-yWCgEpKX6l3O-76" edge="1">
          <mxGeometry relative="1" as="geometry" />
        </mxCell>
        <mxCell id="Wr4rOZ4-yWCgEpKX6l3O-40" value="&lt;font style=&quot;font-size: 20px;&quot;&gt;Scan Target&lt;/font&gt;" style="whiteSpace=wrap;html=1;aspect=fixed;fillColor=#E6FFCC;" parent="1" vertex="1">
          <mxGeometry x="210" y="380" width="140" height="140" as="geometry" />
        </mxCell>
        <mxCell id="Wr4rOZ4-yWCgEpKX6l3O-57" value="" style="edgeStyle=orthogonalEdgeStyle;rounded=0;orthogonalLoop=1;jettySize=auto;html=1;fontSize=13;" parent="1" source="Wr4rOZ4-yWCgEpKX6l3O-54" target="Wr4rOZ4-yWCgEpKX6l3O-56" edge="1">
          <mxGeometry relative="1" as="geometry" />
        </mxCell>
        <mxCell id="Wr4rOZ4-yWCgEpKX6l3O-54" value="Threat Intelligence Lookup" style="whiteSpace=wrap;html=1;aspect=fixed;fontSize=20;fillColor=#E6FFCC;" parent="1" vertex="1">
          <mxGeometry x="1000" y="620" width="140" height="140" as="geometry" />
        </mxCell>
        <mxCell id="Wr4rOZ4-yWCgEpKX6l3O-56" value="Vulnerability Analysis" style="whiteSpace=wrap;html=1;aspect=fixed;fontSize=20;fillColor=#E6FFCC;" parent="1" vertex="1">
          <mxGeometry x="1180" y="620" width="140" height="140" as="geometry" />
        </mxCell>
        <mxCell id="Wr4rOZ4-yWCgEpKX6l3O-58" value="Report" style="whiteSpace=wrap;html=1;aspect=fixed;fontSize=20;fillColor=#E6FFCC;" parent="1" vertex="1">
          <mxGeometry x="760" y="1020" width="190" height="190" as="geometry" />
        </mxCell>
        <mxCell id="Wr4rOZ4-yWCgEpKX6l3O-73" style="edgeStyle=orthogonalEdgeStyle;rounded=0;orthogonalLoop=1;jettySize=auto;html=1;fontSize=20;" parent="1" source="Wr4rOZ4-yWCgEpKX6l3O-70" target="Wr4rOZ4-yWCgEpKX6l3O-23" edge="1">
          <mxGeometry relative="1" as="geometry" />
        </mxCell>
        <mxCell id="Wr4rOZ4-yWCgEpKX6l3O-74" style="edgeStyle=orthogonalEdgeStyle;rounded=0;orthogonalLoop=1;jettySize=auto;html=1;fontSize=20;" parent="1" source="Wr4rOZ4-yWCgEpKX6l3O-70" target="Wr4rOZ4-yWCgEpKX6l3O-24" edge="1">
          <mxGeometry relative="1" as="geometry" />
        </mxCell>
        <mxCell id="Wr4rOZ4-yWCgEpKX6l3O-70" value="Web address" style="text;html=1;strokeColor=none;fillColor=none;align=center;verticalAlign=middle;whiteSpace=wrap;rounded=0;fontSize=20;" parent="1" vertex="1">
          <mxGeometry x="510" y="310" width="60" height="30" as="geometry" />
        </mxCell>
        <mxCell id="Wr4rOZ4-yWCgEpKX6l3O-77" style="edgeStyle=orthogonalEdgeStyle;rounded=0;orthogonalLoop=1;jettySize=auto;html=1;fontSize=20;" parent="1" source="Wr4rOZ4-yWCgEpKX6l3O-76" target="Wr4rOZ4-yWCgEpKX6l3O-25" edge="1">
          <mxGeometry relative="1" as="geometry" />
        </mxCell>
        <mxCell id="Wr4rOZ4-yWCgEpKX6l3O-83" style="edgeStyle=orthogonalEdgeStyle;rounded=0;orthogonalLoop=1;jettySize=auto;html=1;entryX=0;entryY=0.5;entryDx=0;entryDy=0;fontSize=20;" parent="1" source="Wr4rOZ4-yWCgEpKX6l3O-76" target="Wr4rOZ4-yWCgEpKX6l3O-26" edge="1">
          <mxGeometry relative="1" as="geometry" />
        </mxCell>
        <mxCell id="Wr4rOZ4-yWCgEpKX6l3O-76" value="IP" style="text;html=1;strokeColor=none;fillColor=none;align=center;verticalAlign=middle;whiteSpace=wrap;rounded=0;fontSize=20;" parent="1" vertex="1">
          <mxGeometry x="510" y="520" width="60" height="30" as="geometry" />
        </mxCell>
        <mxCell id="Wr4rOZ4-yWCgEpKX6l3O-84" style="edgeStyle=orthogonalEdgeStyle;rounded=0;orthogonalLoop=1;jettySize=auto;html=1;fontSize=20;" parent="1" source="Wr4rOZ4-yWCgEpKX6l3O-17" target="Wr4rOZ4-yWCgEpKX6l3O-26" edge="1">
          <mxGeometry relative="1" as="geometry" />
        </mxCell>
        <mxCell id="Wr4rOZ4-yWCgEpKX6l3O-93" value="" style="edgeStyle=orthogonalEdgeStyle;rounded=0;orthogonalLoop=1;jettySize=auto;html=1;fontSize=20;entryX=-0.12;entryY=0.102;entryDx=0;entryDy=0;entryPerimeter=0;" parent="1" source="Wr4rOZ4-yWCgEpKX6l3O-87" target="Wr4rOZ4-yWCgEpKX6l3O-95" edge="1">
          <mxGeometry relative="1" as="geometry">
            <mxPoint x="1190" y="490" as="targetPoint" />
          </mxGeometry>
        </mxCell>
        <mxCell id="Wr4rOZ4-yWCgEpKX6l3O-135" value="" style="group" parent="1" vertex="1" connectable="0">
          <mxGeometry x="1710" y="370" width="354" height="220" as="geometry" />
        </mxCell>
        <mxCell id="Wr4rOZ4-yWCgEpKX6l3O-123" value="" style="group" parent="Wr4rOZ4-yWCgEpKX6l3O-135" vertex="1" connectable="0">
          <mxGeometry y="93.61702127659575" width="354" height="126.38297872340426" as="geometry" />
        </mxCell>
        <mxCell id="Wr4rOZ4-yWCgEpKX6l3O-134" value="" style="rounded=0;whiteSpace=wrap;html=1;fontSize=12;fillColor=#E6FFCC;" parent="Wr4rOZ4-yWCgEpKX6l3O-123" vertex="1">
          <mxGeometry x="-6" y="-88.93617021276596" width="360" height="215.31914893617022" as="geometry" />
        </mxCell>
        <mxCell id="Wr4rOZ4-yWCgEpKX6l3O-95" value="" style="sketch=0;aspect=fixed;pointerEvents=1;shadow=0;dashed=0;html=1;strokeColor=none;labelPosition=center;verticalLabelPosition=bottom;verticalAlign=top;align=center;fillColor=#00188D;shape=mxgraph.azure.computer;fontSize=20;" parent="Wr4rOZ4-yWCgEpKX6l3O-123" vertex="1">
          <mxGeometry y="18.72340425531915" width="83.21617021276596" height="74.8936170212766" as="geometry" />
        </mxCell>
        <mxCell id="Wr4rOZ4-yWCgEpKX6l3O-111" value="" style="edgeStyle=orthogonalEdgeStyle;rounded=0;orthogonalLoop=1;jettySize=auto;html=1;fontSize=20;entryX=0.994;entryY=0.363;entryDx=0;entryDy=0;entryPerimeter=0;" parent="Wr4rOZ4-yWCgEpKX6l3O-123" source="Wr4rOZ4-yWCgEpKX6l3O-107" target="Wr4rOZ4-yWCgEpKX6l3O-95" edge="1">
          <mxGeometry relative="1" as="geometry" />
        </mxCell>
        <mxCell id="Wr4rOZ4-yWCgEpKX6l3O-107" value="" style="points=[];aspect=fixed;html=1;align=center;shadow=0;dashed=0;image;image=img/lib/allied_telesis/switch/Switch_48_port_L2_POE.svg;fontSize=20;fillColor=#E6FFCC;" parent="Wr4rOZ4-yWCgEpKX6l3O-123" vertex="1">
          <mxGeometry x="240" y="18.72340425531915" width="101.1063829787234" height="68.44340425531915" as="geometry" />
        </mxCell>
        <mxCell id="Wr4rOZ4-yWCgEpKX6l3O-109" value="" style="edgeStyle=orthogonalEdgeStyle;rounded=0;orthogonalLoop=1;jettySize=auto;html=1;fontSize=20;" parent="Wr4rOZ4-yWCgEpKX6l3O-123" source="Wr4rOZ4-yWCgEpKX6l3O-95" target="Wr4rOZ4-yWCgEpKX6l3O-107" edge="1">
          <mxGeometry relative="1" as="geometry">
            <Array as="points">
              <mxPoint x="144" y="37.4468085106383" />
              <mxPoint x="144" y="28.085106382978722" />
            </Array>
          </mxGeometry>
        </mxCell>
        <mxCell id="Wr4rOZ4-yWCgEpKX6l3O-114" value="&lt;span style=&quot;font-size: 12px;&quot;&gt;SYN&lt;/span&gt;" style="text;html=1;align=center;verticalAlign=middle;resizable=0;points=[];autosize=1;strokeColor=none;fillColor=none;fontSize=20;" parent="Wr4rOZ4-yWCgEpKX6l3O-123" vertex="1">
          <mxGeometry x="170" width="50" height="40" as="geometry" />
        </mxCell>
        <mxCell id="Wr4rOZ4-yWCgEpKX6l3O-116" value="&lt;span style=&quot;font-size: 12px;&quot;&gt;RST&lt;/span&gt;" style="text;html=1;align=center;verticalAlign=middle;resizable=0;points=[];autosize=1;strokeColor=none;fillColor=none;fontSize=20;" parent="Wr4rOZ4-yWCgEpKX6l3O-123" vertex="1">
          <mxGeometry x="175" y="37.4468085106383" width="50" height="40" as="geometry" />
        </mxCell>
        <mxCell id="Wr4rOZ4-yWCgEpKX6l3O-122" value="Port is closed" style="text;html=1;strokeColor=#b85450;fillColor=#f8cecc;align=center;verticalAlign=middle;whiteSpace=wrap;rounded=0;fontSize=12;" parent="Wr4rOZ4-yWCgEpKX6l3O-123" vertex="1">
          <mxGeometry x="14.440000000000055" y="37.4468085106383" width="60" height="28.085106382978722" as="geometry" />
        </mxCell>
        <mxCell id="Wr4rOZ4-yWCgEpKX6l3O-137" value="TCP three-way handshake" style="text;html=1;strokeColor=none;fillColor=none;align=center;verticalAlign=middle;whiteSpace=wrap;rounded=0;fontSize=12;" parent="Wr4rOZ4-yWCgEpKX6l3O-123" vertex="1">
          <mxGeometry x="69" y="96.38297872340422" width="210" height="30" as="geometry" />
        </mxCell>
        <mxCell id="Wr4rOZ4-yWCgEpKX6l3O-124" value="" style="group" parent="Wr4rOZ4-yWCgEpKX6l3O-135" vertex="1" connectable="0">
          <mxGeometry width="348" height="107.65957446808511" as="geometry" />
        </mxCell>
        <mxCell id="Wr4rOZ4-yWCgEpKX6l3O-125" value="" style="sketch=0;aspect=fixed;pointerEvents=1;shadow=0;dashed=0;html=1;strokeColor=none;labelPosition=center;verticalLabelPosition=bottom;verticalAlign=top;align=center;fillColor=#00188D;shape=mxgraph.azure.computer;fontSize=20;" parent="Wr4rOZ4-yWCgEpKX6l3O-124" vertex="1">
          <mxGeometry y="18.72340425531915" width="83.21617021276596" height="74.8936170212766" as="geometry" />
        </mxCell>
        <mxCell id="Wr4rOZ4-yWCgEpKX6l3O-126" value="" style="edgeStyle=orthogonalEdgeStyle;rounded=0;orthogonalLoop=1;jettySize=auto;html=1;fontSize=20;entryX=0.994;entryY=0.363;entryDx=0;entryDy=0;entryPerimeter=0;" parent="Wr4rOZ4-yWCgEpKX6l3O-124" source="Wr4rOZ4-yWCgEpKX6l3O-127" target="Wr4rOZ4-yWCgEpKX6l3O-125" edge="1">
          <mxGeometry relative="1" as="geometry" />
        </mxCell>
        <mxCell id="Wr4rOZ4-yWCgEpKX6l3O-127" value="" style="points=[];aspect=fixed;html=1;align=center;shadow=0;dashed=0;image;image=img/lib/allied_telesis/switch/Switch_48_port_L2_POE.svg;fontSize=20;fillColor=#E6FFCC;" parent="Wr4rOZ4-yWCgEpKX6l3O-124" vertex="1">
          <mxGeometry x="240" y="18.72340425531915" width="101.1063829787234" height="68.44340425531915" as="geometry" />
        </mxCell>
        <mxCell id="Wr4rOZ4-yWCgEpKX6l3O-128" value="" style="edgeStyle=orthogonalEdgeStyle;rounded=0;orthogonalLoop=1;jettySize=auto;html=1;fontSize=20;" parent="Wr4rOZ4-yWCgEpKX6l3O-124" source="Wr4rOZ4-yWCgEpKX6l3O-125" target="Wr4rOZ4-yWCgEpKX6l3O-127" edge="1">
          <mxGeometry relative="1" as="geometry">
            <Array as="points">
              <mxPoint x="144" y="37.4468085106383" />
              <mxPoint x="144" y="28.085106382978722" />
            </Array>
          </mxGeometry>
        </mxCell>
        <mxCell id="Wr4rOZ4-yWCgEpKX6l3O-129" value="" style="edgeStyle=orthogonalEdgeStyle;rounded=0;orthogonalLoop=1;jettySize=auto;html=1;fontSize=20;entryX=-0.065;entryY=0.882;entryDx=0;entryDy=0;entryPerimeter=0;" parent="Wr4rOZ4-yWCgEpKX6l3O-124" source="Wr4rOZ4-yWCgEpKX6l3O-125" target="Wr4rOZ4-yWCgEpKX6l3O-127" edge="1">
          <mxGeometry relative="1" as="geometry">
            <mxPoint x="220" y="131.06382978723406" as="targetPoint" />
          </mxGeometry>
        </mxCell>
        <mxCell id="Wr4rOZ4-yWCgEpKX6l3O-130" value="&lt;span style=&quot;font-size: 12px;&quot;&gt;SYN&lt;/span&gt;" style="text;html=1;align=center;verticalAlign=middle;resizable=0;points=[];autosize=1;strokeColor=none;fillColor=none;fontSize=20;" parent="Wr4rOZ4-yWCgEpKX6l3O-124" vertex="1">
          <mxGeometry x="170" width="50" height="40" as="geometry" />
        </mxCell>
        <mxCell id="Wr4rOZ4-yWCgEpKX6l3O-131" value="&lt;span style=&quot;font-size: 12px;&quot;&gt;SYN+ACK&lt;/span&gt;" style="text;html=1;align=center;verticalAlign=middle;resizable=0;points=[];autosize=1;strokeColor=none;fillColor=none;fontSize=20;" parent="Wr4rOZ4-yWCgEpKX6l3O-124" vertex="1">
          <mxGeometry x="160" y="37.4468085106383" width="80" height="40" as="geometry" />
        </mxCell>
        <mxCell id="Wr4rOZ4-yWCgEpKX6l3O-132" value="ACK" style="text;html=1;strokeColor=none;fillColor=none;align=center;verticalAlign=middle;whiteSpace=wrap;rounded=0;fontSize=12;" parent="Wr4rOZ4-yWCgEpKX6l3O-124" vertex="1">
          <mxGeometry x="165" y="77.4444680851064" width="60" height="28.085106382978722" as="geometry" />
        </mxCell>
        <mxCell id="Wr4rOZ4-yWCgEpKX6l3O-133" value="Port is open" style="text;html=1;strokeColor=#82b366;fillColor=#d5e8d4;align=center;verticalAlign=middle;whiteSpace=wrap;rounded=0;fontSize=12;" parent="Wr4rOZ4-yWCgEpKX6l3O-124" vertex="1">
          <mxGeometry x="14.440000000000055" y="37.4468085106383" width="60" height="28.085106382978722" as="geometry" />
        </mxCell>
        <mxCell id="Wr4rOZ4-yWCgEpKX6l3O-144" value="" style="group" parent="1" vertex="1" connectable="0">
          <mxGeometry x="1220" y="430" width="120" height="140" as="geometry" />
        </mxCell>
        <mxCell id="Wr4rOZ4-yWCgEpKX6l3O-87" value="" style="shape=image;html=1;verticalAlign=top;verticalLabelPosition=bottom;labelBackgroundColor=#ffffff;imageAspect=0;aspect=fixed;image=https://cdn2.iconfinder.com/data/icons/atrous/512/command_line_prompt_shell-128.png;fontSize=20;fillColor=#E6FFCC;" parent="Wr4rOZ4-yWCgEpKX6l3O-144" vertex="1">
          <mxGeometry width="120" height="120" as="geometry" />
        </mxCell>
        <mxCell id="Wr4rOZ4-yWCgEpKX6l3O-143" value="&lt;font style=&quot;font-size: 20px;&quot;&gt;CLI&lt;/font&gt;" style="text;html=1;strokeColor=none;fillColor=none;align=center;verticalAlign=middle;whiteSpace=wrap;rounded=0;fontSize=12;" parent="Wr4rOZ4-yWCgEpKX6l3O-144" vertex="1">
          <mxGeometry x="30" y="110" width="60" height="30" as="geometry" />
        </mxCell>
        <mxCell id="gi1j-m5IwWOm1mO39dkb-2" value="" style="group" vertex="1" connectable="0" parent="1">
          <mxGeometry x="970" y="330" width="120" height="140" as="geometry" />
        </mxCell>
        <mxCell id="gi1j-m5IwWOm1mO39dkb-3" value="" style="shape=image;html=1;verticalAlign=top;verticalLabelPosition=bottom;labelBackgroundColor=#ffffff;imageAspect=0;aspect=fixed;image=https://cdn2.iconfinder.com/data/icons/atrous/512/command_line_prompt_shell-128.png;fontSize=20;fillColor=#E6FFCC;" vertex="1" parent="gi1j-m5IwWOm1mO39dkb-2">
          <mxGeometry width="120" height="120" as="geometry" />
        </mxCell>
        <mxCell id="gi1j-m5IwWOm1mO39dkb-4" value="&lt;font style=&quot;font-size: 20px;&quot;&gt;CLI&lt;/font&gt;" style="text;html=1;strokeColor=none;fillColor=none;align=center;verticalAlign=middle;whiteSpace=wrap;rounded=0;fontSize=12;" vertex="1" parent="gi1j-m5IwWOm1mO39dkb-2">
          <mxGeometry x="30" y="110" width="60" height="30" as="geometry" />
        </mxCell>
        <mxCell id="gi1j-m5IwWOm1mO39dkb-9" value="" style="endArrow=classic;html=1;rounded=0;fontSize=20;" edge="1" parent="1">
          <mxGeometry relative="1" as="geometry">
            <mxPoint x="1090" y="390" as="sourcePoint" />
            <mxPoint x="1410" y="390" as="targetPoint" />
          </mxGeometry>
        </mxCell>
        <mxCell id="gi1j-m5IwWOm1mO39dkb-10" value="&lt;font style=&quot;font-size: 11px;&quot;&gt;connecting via handshakes on FTP, RDP, IMAP,&lt;br&gt;&amp;nbsp;POP, LDAP, XMPP, SMTP&lt;/font&gt;" style="edgeLabel;resizable=0;html=1;align=center;verticalAlign=middle;fontSize=20;fillColor=#E6FFCC;" connectable="0" vertex="1" parent="gi1j-m5IwWOm1mO39dkb-9">
          <mxGeometry relative="1" as="geometry" />
        </mxCell>
        <mxCell id="gi1j-m5IwWOm1mO39dkb-13" value="" style="group" vertex="1" connectable="0" parent="1">
          <mxGeometry x="1410" y="330" width="110" height="140" as="geometry" />
        </mxCell>
        <mxCell id="gi1j-m5IwWOm1mO39dkb-11" value="" style="sketch=0;html=1;aspect=fixed;strokeColor=none;shadow=0;align=center;verticalAlign=top;fillColor=#3B8DF1;shape=mxgraph.gcp2.servers_stacked;fontSize=20;" vertex="1" parent="gi1j-m5IwWOm1mO39dkb-13">
          <mxGeometry width="110" height="110" as="geometry" />
        </mxCell>
        <mxCell id="gi1j-m5IwWOm1mO39dkb-12" value="Servers" style="text;html=1;strokeColor=none;fillColor=none;align=center;verticalAlign=middle;whiteSpace=wrap;rounded=0;fontSize=20;" vertex="1" parent="gi1j-m5IwWOm1mO39dkb-13">
          <mxGeometry x="27" y="110" width="60" height="30" as="geometry" />
        </mxCell>
      </root>
    </mxGraphModel>
  </diagram>
</mxfile>
